<?xml version="1.0" encoding="utf-8"?>
<!-- Generator: Adobe Illustrator 15.0.0, SVG Export Plug-In . SVG Version: 6.00 Build 0)  -->
<!DOCTYPE svg PUBLIC "-//W3C//DTD SVG 1.1//EN" "http://www.w3.org/Graphics/SVG/1.1/DTD/svg11.dtd">
<svg version="1.1" id="Calque_1" xmlns="http://www.w3.org/2000/svg" xmlns:xlink="http://www.w3.org/1999/xlink" x="0px" y="0px"
	 width="260px" height="64px" viewBox="0 0 260 64" enable-background="new 0 0 260 64" xml:space="preserve">
<g enable-background="new    ">
	<path fill="#FFFFFF" d="M0.455,35.635c0-0.604,0.036-1.458,0.109-2.559c0.072-1.1,0.318-2.278,0.737-3.535
		c0.418-1.256,1.083-2.517,1.993-3.782c0.911-1.266,2.203-2.348,3.878-3.246c1.347-0.752,2.699-1.238,4.055-1.458
		c1.356-0.22,2.672-0.33,3.946-0.33c2.517,0,4.708,0.362,6.573,1.086c1.865,0.725,3.417,1.756,4.658,3.095
		c1.241,1.339,2.164,2.957,2.77,4.854c0.606,1.898,0.91,3.993,0.91,6.285c0,1.081-0.078,2.165-0.235,3.255
		c-0.156,1.09-0.399,2.155-0.73,3.198c-0.753,2.144-1.686,3.758-2.797,4.847c-1.112,1.09-2.27,1.896-3.473,2.418
		c-1.203,0.521-2.476,0.896-3.817,1.125c-1.341,0.229-2.609,0.344-3.803,0.344c-1.383,0-2.704-0.119-3.959-0.357
		c-1.202-0.22-2.363-0.555-3.482-1.002c-1.12-0.448-2.198-1.193-3.236-2.237c-1.001-0.971-1.775-2.022-2.321-3.157
		c-0.546-1.136-0.951-2.252-1.215-3.351c-0.264-1.099-0.423-2.129-0.478-3.09C0.483,37.077,0.455,36.275,0.455,35.635z
		 M10.926,35.882c0,0.786,0.036,1.618,0.11,2.496c0.073,0.878,0.321,1.71,0.745,2.496c0.257,0.53,0.643,1.038,1.158,1.522
		c0.514,0.484,1.259,0.728,2.233,0.728c1.048,0,1.856-0.293,2.426-0.878c0.57-0.585,0.983-1.28,1.241-2.085
		c0.257-0.806,0.404-1.619,0.441-2.441c0.037-0.823,0.055-1.48,0.055-1.976c0-0.457-0.018-1.083-0.055-1.879
		c-0.037-0.795-0.184-1.586-0.441-2.373c-0.258-0.786-0.671-1.472-1.241-2.058c-0.57-0.585-1.378-0.878-2.426-0.878
		c-0.975,0-1.82,0.321-2.537,0.961c-0.423,0.457-0.745,0.956-0.965,1.495c-0.22,0.539-0.391,1.102-0.51,1.687
		c-0.12,0.586-0.188,1.156-0.207,1.715C10.935,34.973,10.926,35.461,10.926,35.882z"/>
	<path fill="#FFFFFF" d="M33.298,50.489v-8.107h2.309V29.437h-2.309V21.33h11.537l0.332,4.452c0.219-0.421,0.452-0.819,0.699-1.195
		c0.247-0.376,0.599-0.765,1.056-1.168c0.822-0.825,1.841-1.512,3.057-2.062c1.216-0.55,2.645-0.824,4.291-0.824
		c1.539,0,2.817,0.238,3.834,0.714c1.017,0.477,1.782,0.989,2.295,1.539c0.971,0.972,1.543,2.012,1.718,3.12
		c0.174,1.108,0.279,2.176,0.316,3.201v13.275h2.418v8.107h-12.89V33.312c0-0.972-0.073-1.677-0.219-2.117
		c-0.219-0.604-0.575-1.012-1.067-1.223c-0.492-0.211-0.939-0.316-1.34-0.316c-0.821,0-1.532,0.303-2.134,0.907
		c-0.529,0.531-0.839,1.113-0.93,1.745s-0.155,1.36-0.191,2.185v7.889h1.924v8.107L33.298,50.489L33.298,50.489z"/>
	<path fill="#FFFFFF" d="M67.103,50.489v-8.107h2.418V29.437h-2.418V21.33h12.89v21.053h2.473v8.107L67.103,50.489L67.103,50.489z
		 M69.247,18.223v-7.531h10.747v7.531H69.247z"/>
	<path fill="#FFFFFF" d="M84.72,50.489v-8.107h2.418V29.437H84.72V21.33h11.323l0.33,5.057c0.11-0.385,0.279-0.884,0.508-1.498
		c0.229-0.613,0.595-1.209,1.1-1.786c0.503-0.577,1.195-1.072,2.075-1.484c0.88-0.412,2.016-0.618,3.408-0.618
		c0.604,0,1.104,0.027,1.498,0.082c0.394,0.056,0.811,0.138,1.25,0.248v9.345c-0.421-0.073-0.806-0.138-1.154-0.192
		c-0.348-0.056-0.788-0.083-1.319-0.083c-1.082,0-2.043,0.151-2.886,0.453c-0.843,0.303-1.53,0.711-2.062,1.224
		c-0.678,0.678-1.082,1.438-1.209,2.281c-0.128,0.843-0.192,1.941-0.192,3.298l-0.11,4.728h3.436v8.107H84.72V50.489z"/>
	<path fill="#FFFFFF" d="M108.191,50.489v-8.107h2.418V29.437h-2.418V21.33h12.89v21.053h2.473v8.107L108.191,50.489L108.191,50.489
		z M110.335,18.223v-7.531h10.747v7.531H110.335z"/>
	<path fill="#FFFFFF" d="M125.918,29.652c0-1.063,0.188-2.141,0.563-3.231c0.375-1.092,0.976-2.066,1.8-2.924
		c0.825-0.858,1.864-1.554,3.119-2.085c1.256-0.532,2.779-0.798,4.57-0.798c1.151,0,2.133,0.114,2.946,0.342
		c0.812,0.229,1.487,0.508,2.026,0.841c0.539,0.332,0.986,0.693,1.344,1.082c0.355,0.39,0.652,0.717,0.891,0.982l0.165-2.367h8.272
		V31.8h-8.438c-0.073-0.307-0.159-0.698-0.261-1.176s-0.292-0.925-0.575-1.343c-0.282-0.417-0.676-0.775-1.179-1.073
		c-0.502-0.299-1.164-0.448-1.986-0.448c-0.785,0-1.466,0.184-2.041,0.55c-0.574,0.367-0.863,0.849-0.863,1.444
		c0,0.461,0.164,0.845,0.494,1.152c0.108,0.103,0.241,0.201,0.396,0.295c0.154,0.094,0.37,0.192,0.645,0.294
		c0.273,0.103,0.657,0.213,1.15,0.333l1.918,0.549c1.729,0.495,3.268,0.967,4.613,1.416c1.347,0.449,2.492,1.023,3.437,1.727
		c0.943,0.699,1.658,1.566,2.144,2.601c0.486,1.034,0.729,2.358,0.729,3.976c0,0.768-0.114,1.752-0.344,2.957
		s-0.849,2.34-1.854,3.405c-0.109,0.112-0.344,0.322-0.701,0.631c-0.356,0.308-0.848,0.616-1.471,0.925s-1.393,0.588-2.309,0.84
		c-0.916,0.254-2.02,0.379-3.312,0.379c-1.205,0-2.224-0.118-3.056-0.356c-0.831-0.237-1.548-0.515-2.149-0.83
		c-0.604-0.313-1.078-0.644-1.426-0.985l-0.877-0.888l-0.164,2.318h-8.438V39.798h8.163c0.027,0.8,0.197,1.468,0.51,2.004
		c0.312,0.535,0.695,0.979,1.154,1.327c0.457,0.348,0.947,0.596,1.47,0.739c0.522,0.146,1.05,0.218,1.581,0.218
		c0.968,0,1.685-0.218,2.15-0.65c0.465-0.434,0.698-0.897,0.698-1.392c0-0.595-0.215-1.017-0.646-1.263
		c-0.43-0.247-0.807-0.422-1.137-0.523l-2.055-0.613c-0.658-0.196-1.343-0.393-2.057-0.588c-0.857-0.221-1.842-0.515-2.949-0.884
		c-1.107-0.368-2.157-0.903-3.147-1.606c-0.989-0.702-1.823-1.606-2.5-2.715C126.257,32.744,125.918,31.345,125.918,29.652z"/>
</g>
<g enable-background="new    ">
	<path fill="#FFFFFF" d="M158.037,30.055c0-0.53,0.104-1.045,0.312-1.542c0.207-0.498,0.49-0.912,0.849-1.244
		c0.271-0.229,0.573-0.416,0.909-0.563s0.695-0.267,1.078-0.359c0.383-0.092,0.781-0.156,1.193-0.193
		c0.413-0.037,0.82-0.056,1.223-0.056c0.213,0,0.438,0.004,0.67,0.012c0.232,0.007,0.455,0.019,0.67,0.032V25.38
		c-0.016-0.429-0.055-0.833-0.116-1.214s-0.253-0.702-0.57-0.964c-0.17-0.131-0.379-0.237-0.626-0.321
		c-0.247-0.083-0.521-0.125-0.824-0.125c-0.215,0-0.449,0.029-0.703,0.088c-0.254,0.059-0.496,0.158-0.726,0.301
		c-0.229,0.142-0.429,0.344-0.594,0.606c-0.166,0.262-0.265,0.594-0.294,0.995h-1.891c0.043-0.359,0.125-0.768,0.246-1.226
		c0.119-0.458,0.405-0.893,0.857-1.303c0.312-0.286,0.726-0.519,1.238-0.698c0.514-0.18,1.119-0.27,1.818-0.27
		c0.6,0,1.186,0.096,1.762,0.286c0.575,0.19,1.062,0.502,1.459,0.934c0.201,0.229,0.354,0.461,0.461,0.698
		c0.104,0.238,0.183,0.489,0.233,0.753c0.054,0.265,0.086,0.532,0.103,0.803l0.057,0.836v6.277h1.55v1.418h-3.327l-0.113-1.371
		c-0.119,0.146-0.264,0.314-0.433,0.505c-0.17,0.19-0.378,0.371-0.626,0.543c-0.247,0.172-0.547,0.317-0.896,0.438
		c-0.352,0.12-0.76,0.181-1.225,0.181c-0.58,0-1.098-0.092-1.553-0.273c-0.453-0.185-0.844-0.434-1.17-0.748
		c-0.327-0.315-0.576-0.687-0.746-1.11C158.122,30.993,158.037,30.538,158.037,30.055z M159.928,29.967
		c0,0.593,0.18,1.102,0.535,1.527c0.357,0.426,0.883,0.639,1.576,0.639c0.486,0,0.895-0.089,1.225-0.266
		c0.328-0.176,0.582-0.354,0.764-0.535c0.181-0.181,0.328-0.372,0.443-0.574c0.113-0.203,0.206-0.447,0.275-0.734
		c0.07-0.288,0.117-0.634,0.139-1.039c0.022-0.404,0.041-0.895,0.057-1.469c-0.303-0.029-0.568-0.052-0.797-0.066
		c-0.229-0.015-0.463-0.021-0.699-0.021c-0.614,0-1.069,0.04-1.362,0.12l-0.604,0.165c-0.513,0.213-0.898,0.521-1.158,0.924
		C160.059,29.04,159.928,29.483,159.928,29.967z"/>
	<path fill="#FFFFFF" d="M169.426,33.254v-1.418h1.649v-8.894h-1.649v-1.419h3.262l0.066,1.892c0.104-0.228,0.221-0.453,0.35-0.677
		c0.129-0.224,0.328-0.456,0.601-0.698c0.284-0.241,0.601-0.421,0.944-0.538c0.345-0.117,0.699-0.176,1.066-0.176
		c0.184,0,0.352,0.015,0.506,0.044c0.153,0.029,0.336,0.059,0.549,0.088v1.891c-0.168-0.029-0.328-0.051-0.479-0.065
		c-0.15-0.014-0.307-0.022-0.467-0.022c-0.301,0-0.568,0.033-0.803,0.099s-0.438,0.152-0.609,0.259
		c-0.173,0.106-0.318,0.211-0.436,0.313c-0.119,0.102-0.209,0.201-0.273,0.297c-0.375,0.461-0.592,0.964-0.648,1.506
		c-0.059,0.542-0.089,1.052-0.089,1.528v4.573h1.683v1.418L169.426,33.254L169.426,33.254z"/>
	<path fill="#FFFFFF" d="M177.1,22.942v-1.419h1.728v-2.518l1.891-0.406v2.924h2.572v1.419h-2.572v7.52
		c0,0.183,0.017,0.364,0.05,0.544c0.032,0.18,0.098,0.341,0.192,0.483c0.095,0.144,0.239,0.259,0.435,0.347
		c0.192,0.088,0.467,0.132,0.817,0.132c0.213,0,0.418-0.015,0.616-0.044l0.615-0.088v1.484c-0.301,0.044-0.573,0.08-0.818,0.109
		c-0.245,0.028-0.497,0.043-0.753,0.043c-0.748,0-1.328-0.094-1.742-0.279c-0.414-0.187-0.715-0.428-0.901-0.72
		c-0.188-0.293-0.302-0.612-0.34-0.957c-0.041-0.344-0.062-0.674-0.062-0.989v-7.585H177.1z"/>
</g>
<g enable-background="new    ">
	<path fill="#FFFFFF" d="M175.502,43.807c0-0.797,0.092-1.576,0.277-2.337c0.187-0.761,0.48-1.434,0.885-2.02
		s0.918-1.06,1.543-1.423c0.625-0.362,1.367-0.545,2.23-0.545c0.293,0,0.576,0.028,0.848,0.084c0.453,0.08,0.893,0.226,1.318,0.436
		c0.426,0.211,0.816,0.534,1.176,0.971c0.078,0.096,0.145,0.189,0.197,0.28c0.051,0.091,0.108,0.185,0.174,0.28l0.098-1.752h3.65
		v1.537h-1.821c-0.017,1.715-0.024,3.418-0.024,5.109v5.111c0,0.602-0.01,1.141-0.029,1.619c-0.021,0.479-0.065,0.919-0.139,1.322
		c-0.072,0.401-0.191,0.771-0.355,1.103c-0.163,0.332-0.395,0.651-0.69,0.961c-0.394,0.401-0.919,0.733-1.577,0.996
		c-0.656,0.261-1.429,0.392-2.311,0.392c-0.649,0-1.286-0.09-1.912-0.269s-1.182-0.476-1.663-0.888
		c-0.325-0.262-0.582-0.529-0.772-0.805c-0.189-0.272-0.336-0.535-0.438-0.785s-0.175-0.486-0.214-0.709s-0.067-0.404-0.083-0.547
		h2.077c0.031,0.198,0.08,0.396,0.143,0.592c0.064,0.194,0.188,0.412,0.371,0.651c0.373,0.472,0.805,0.776,1.294,0.916
		s0.897,0.21,1.224,0.21c0.144,0,0.385-0.021,0.729-0.06c0.342-0.039,0.676-0.162,1.002-0.367c0.326-0.197,0.575-0.42,0.745-0.669
		c0.172-0.248,0.297-0.516,0.377-0.799c0.079-0.284,0.129-0.58,0.147-0.889c0.02-0.308,0.03-0.606,0.03-0.898V48.63
		c-0.198,0.271-0.403,0.519-0.614,0.738s-0.504,0.428-0.877,0.621c-0.246,0.124-0.545,0.237-0.896,0.343
		c-0.351,0.104-0.735,0.157-1.157,0.157c-0.633,0-1.238-0.124-1.814-0.374c-0.578-0.249-1.1-0.635-1.565-1.157
		c-0.11-0.127-0.256-0.312-0.435-0.558c-0.178-0.246-0.353-0.566-0.521-0.963c-0.169-0.396-0.316-0.894-0.438-1.494
		C175.562,45.342,175.502,44.63,175.502,43.807z M177.55,43.878c0,0.375,0.021,0.746,0.06,1.113c0.039,0.366,0.107,0.729,0.203,1.09
		c0.263,0.901,0.662,1.59,1.199,2.063c0.537,0.475,1.131,0.713,1.783,0.713c0.357,0,0.708-0.073,1.051-0.223
		c0.342-0.146,0.629-0.337,0.858-0.568c0.485-0.471,0.827-1.063,1.026-1.782c0.199-0.718,0.299-1.472,0.299-2.263
		c0-0.473-0.035-0.949-0.103-1.434s-0.188-0.954-0.364-1.41c-0.277-0.672-0.658-1.184-1.14-1.535s-1.024-0.527-1.629-0.527
		c-0.312,0-0.599,0.048-0.864,0.145c-0.267,0.096-0.5,0.221-0.697,0.371c-0.358,0.248-0.646,0.551-0.865,0.906
		s-0.391,0.73-0.514,1.128c-0.123,0.396-0.205,0.786-0.244,1.17C177.568,43.219,177.55,43.566,177.55,43.878z"/>
	<path fill="#FFFFFF" d="M188.793,47.023c0-0.575,0.111-1.133,0.338-1.672c0.225-0.539,0.531-0.986,0.92-1.347
		c0.292-0.248,0.62-0.45,0.984-0.61c0.363-0.16,0.753-0.289,1.168-0.39c0.416-0.1,0.847-0.17,1.293-0.21
		c0.447-0.04,0.889-0.061,1.324-0.061c0.23,0,0.474,0.005,0.726,0.013s0.493,0.021,0.726,0.035v-0.825
		c-0.016-0.464-0.058-0.902-0.125-1.314c-0.067-0.414-0.274-0.762-0.619-1.045c-0.184-0.142-0.409-0.257-0.678-0.348
		c-0.268-0.09-0.565-0.136-0.894-0.136c-0.231,0-0.485,0.032-0.763,0.095c-0.275,0.062-0.537,0.172-0.785,0.326
		s-0.463,0.373-0.643,0.656c-0.181,0.285-0.285,0.645-0.318,1.078H189.4c0.047-0.39,0.135-0.832,0.266-1.328s0.439-0.967,0.93-1.41
		c0.338-0.311,0.786-0.562,1.342-0.758c0.558-0.193,1.213-0.291,1.972-0.291c0.647,0,1.284,0.104,1.907,0.311
		c0.623,0.206,1.15,0.544,1.58,1.012c0.22,0.246,0.386,0.498,0.498,0.758c0.113,0.258,0.199,0.528,0.256,0.814
		c0.058,0.286,0.094,0.576,0.109,0.869l0.061,0.904v6.802H200v1.536h-3.605l-0.123-1.485c-0.127,0.159-0.283,0.341-0.467,0.547
		c-0.186,0.206-0.41,0.402-0.679,0.589s-0.593,0.346-0.972,0.476c-0.381,0.131-0.822,0.196-1.326,0.196
		c-0.629,0-1.189-0.1-1.682-0.299c-0.492-0.197-0.914-0.468-1.27-0.81c-0.354-0.341-0.624-0.742-0.809-1.203
		C188.885,48.04,188.793,47.548,188.793,47.023z M190.841,46.93c0,0.641,0.193,1.192,0.581,1.653c0.387,0.461,0.955,0.69,1.706,0.69
		c0.528,0,0.97-0.096,1.325-0.287c0.355-0.19,0.633-0.385,0.828-0.579c0.195-0.195,0.355-0.403,0.479-0.622
		c0.124-0.221,0.226-0.485,0.3-0.796c0.076-0.312,0.127-0.688,0.149-1.125c0.024-0.438,0.045-0.97,0.062-1.593
		c-0.328-0.03-0.615-0.056-0.863-0.07c-0.248-0.016-0.5-0.024-0.756-0.024c-0.668,0-1.16,0.044-1.478,0.132l-0.655,0.178
		c-0.556,0.23-0.976,0.564-1.256,1.002C190.982,45.925,190.841,46.404,190.841,46.93z"/>
	<path fill="#FFFFFF" d="M201.059,50.489v-1.536h1.787V34.805h-1.787v-1.537h3.836v15.687h1.774v1.536L201.059,50.489
		L201.059,50.489z"/>
	<path fill="#FFFFFF" d="M207.669,50.489v-1.536h1.786V34.805h-1.786v-1.537h3.835v15.687h1.775v1.536L207.669,50.489
		L207.669,50.489z"/>
	<path fill="#FFFFFF" d="M214.754,45.926c-0.086-0.57-0.129-1.15-0.129-1.738s0.043-1.164,0.129-1.73s0.227-1.111,0.418-1.634
		c0.193-0.522,0.451-1.003,0.773-1.438s0.727-0.808,1.215-1.117c0.354-0.229,0.764-0.416,1.232-0.562
		c0.467-0.146,1.004-0.221,1.608-0.221c0.985,0,1.795,0.158,2.431,0.477c0.633,0.318,1.137,0.689,1.514,1.114
		s0.652,0.839,0.824,1.243c0.174,0.406,0.282,0.699,0.332,0.882c0.198,0.62,0.315,1.159,0.348,1.62
		c0.033,0.461,0.049,0.929,0.049,1.404h-8.812c-0.009,0.184-0.013,0.373-0.013,0.57c0,0.104,0,0.202,0,0.297
		c0.009,0.311,0.052,0.649,0.132,1.021c0.182,0.863,0.547,1.587,1.092,2.169s1.299,0.873,2.26,0.873
		c0.525,0,0.966-0.093,1.318-0.278c0.354-0.186,0.631-0.382,0.83-0.587c0.312-0.324,0.523-0.651,0.639-0.983
		c0.117-0.332,0.188-0.604,0.222-0.818h2.048c-0.111,0.763-0.318,1.414-0.622,1.953c-0.305,0.539-0.682,0.984-1.133,1.334
		s-0.967,0.604-1.545,0.769c-0.579,0.162-1.196,0.244-1.851,0.244c-0.465,0-0.977-0.062-1.533-0.185
		c-0.56-0.123-1.073-0.349-1.547-0.674c-0.416-0.277-0.772-0.623-1.071-1.037c-0.3-0.412-0.545-0.867-0.737-1.363
		C214.98,47.032,214.84,46.498,214.754,45.926z M216.732,42.688h6.623c-0.127-1.232-0.504-2.138-1.133-2.711
		c-0.63-0.574-1.357-0.861-2.187-0.861c-0.405,0-0.761,0.051-1.062,0.152c-0.303,0.101-0.565,0.231-0.789,0.393
		c-0.223,0.16-0.402,0.332-0.543,0.516c-0.139,0.184-0.248,0.35-0.328,0.498c-0.229,0.398-0.377,0.762-0.44,1.09
		C216.812,42.091,216.764,42.398,216.732,42.688z"/>
	<path fill="#FFFFFF" d="M227.059,50.489v-1.536h1.787v-9.635h-1.787v-1.537h3.533l0.072,2.049c0.113-0.246,0.238-0.49,0.378-0.732
		s0.354-0.494,0.649-0.756c0.31-0.263,0.649-0.457,1.023-0.584c0.373-0.127,0.758-0.189,1.155-0.189
		c0.198,0,0.381,0.016,0.547,0.048c0.168,0.03,0.365,0.063,0.597,0.095v2.049c-0.183-0.031-0.355-0.056-0.519-0.07
		c-0.163-0.018-0.332-0.024-0.506-0.024c-0.326,0-0.615,0.036-0.869,0.106c-0.255,0.071-0.476,0.166-0.662,0.28
		c-0.187,0.115-0.343,0.229-0.47,0.339c-0.129,0.111-0.227,0.219-0.299,0.321c-0.403,0.501-0.639,1.045-0.703,1.632
		c-0.062,0.588-0.094,1.141-0.094,1.655v4.955h1.821v1.536L227.059,50.489L227.059,50.489z"/>
	<path fill="#FFFFFF" d="M235.098,39.318v-1.537h5.098v1.537h-1.633l2.979,8.832l2.931-8.832h-1.668v-1.537h4.883v1.537h-1.273
		l-4.455,12.707c-0.197,0.572-0.402,1.098-0.613,1.578c-0.209,0.479-0.463,0.892-0.756,1.231c-0.294,0.342-0.65,0.608-1.072,0.806
		c-0.42,0.193-0.949,0.291-1.584,0.291c-0.373,0-0.727-0.029-1.06-0.09c-0.333-0.059-0.663-0.128-0.989-0.207v-1.787
		c0.23,0.11,0.471,0.213,0.721,0.31c0.25,0.096,0.562,0.144,0.937,0.144c0.453,0,0.834-0.09,1.144-0.269
		c0.311-0.179,0.573-0.425,0.793-0.739c0.217-0.312,0.403-0.691,0.56-1.132c0.155-0.441,0.315-0.925,0.481-1.448l-4.121-11.395
		H235.098z"/>
</g>
<g>
	<g>
		<g>
			<defs>
				<rect id="SVGID_1_" x="158.514" y="38.907" width="10.315" height="10.315"/>
			</defs>
			<clipPath id="SVGID_2_">
				<use xlink:href="#SVGID_1_"  overflow="visible"/>
			</clipPath>
			<path id="logo-circle" clip-path="url(#SVGID_2_)" fill="#FFBC17" d="M163.671,49.225c2.851,0,5.158-2.311,5.158-5.158
				c0-2.851-2.31-5.157-5.158-5.157c-2.848,0-5.157,2.309-5.157,5.157C158.514,46.914,160.822,49.225,163.671,49.225"/>
		</g>
	</g>
</g>
</svg>
